<mxfile host="65bd71144e">
    <diagram id="Os5JPxO0lozD0gvnCGAL" name="define gait cycle">
        <mxGraphModel dx="2504" dy="985" grid="1" gridSize="10" guides="1" tooltips="1" connect="1" arrows="1" fold="1" page="0" pageScale="1" pageWidth="827" pageHeight="1169" background="#ffffff" math="1" shadow="0">
            <root>
                <mxCell id="0"/>
                <mxCell id="1" parent="0"/>
                <mxCell id="6" value="" style="edgeStyle=none;html=1;fillColor=#f5f5f5;strokeColor=#000000;snapToPoint=0;fixDash=0;editable=1;movable=1;resizable=1;rotatable=1;deletable=1;connectable=1;" parent="1" source="2" target="3" edge="1">
                    <mxGeometry relative="1" as="geometry"/>
                </mxCell>
                <mxCell id="2" value="video" style="whiteSpace=wrap;html=1;aspect=fixed;fillColor=#f5f5f5;strokeColor=#000000;fontColor=#333333;snapToPoint=0;fixDash=0;editable=1;movable=1;resizable=1;rotatable=1;deletable=1;connectable=1;" parent="1" vertex="1">
                    <mxGeometry x="-460" y="43.5" width="71" height="71" as="geometry"/>
                </mxCell>
                <mxCell id="8" value="" style="edgeStyle=orthogonalEdgeStyle;html=1;fillColor=#f5f5f5;strokeColor=#000000;snapToPoint=0;fixDash=0;editable=1;movable=1;resizable=1;rotatable=1;deletable=1;connectable=1;entryX=0;entryY=0.5;entryDx=0;entryDy=0;exitX=1;exitY=0.5;exitDx=0;exitDy=0;" parent="1" source="3" target="7" edge="1">
                    <mxGeometry relative="1" as="geometry"/>
                </mxCell>
                <mxCell id="uvtqeoxM3udcTJfN53Oq-42" value="" style="edgeStyle=orthogonalEdgeStyle;html=1;strokeColor=#000000;entryX=0;entryY=0.5;entryDx=0;entryDy=0;" parent="1" source="3" target="uvtqeoxM3udcTJfN53Oq-41" edge="1">
                    <mxGeometry relative="1" as="geometry"/>
                </mxCell>
                <mxCell id="3" value="static image" style="whiteSpace=wrap;html=1;aspect=fixed;fillColor=#f5f5f5;strokeColor=#000000;fontColor=#333333;snapToPoint=0;fixDash=0;editable=1;movable=1;resizable=1;rotatable=1;deletable=1;connectable=1;" parent="1" vertex="1">
                    <mxGeometry x="-330" y="43.5" width="71" height="71" as="geometry"/>
                </mxCell>
                <mxCell id="10" value="" style="edgeStyle=orthogonalEdgeStyle;html=1;fillColor=#f5f5f5;strokeColor=#000000;snapToPoint=0;fixDash=0;editable=1;movable=1;resizable=1;rotatable=1;deletable=1;connectable=1;" parent="1" source="7" target="9" edge="1">
                    <mxGeometry relative="1" as="geometry">
                        <Array as="points">
                            <mxPoint x="-103" y="-1"/>
                        </Array>
                    </mxGeometry>
                </mxCell>
                <mxCell id="7" value="pose estimation" style="rounded=1;whiteSpace=wrap;html=1;fillColor=#f5f5f5;strokeColor=#000000;fontColor=#333333;snapToPoint=0;fixDash=0;editable=1;movable=1;resizable=1;rotatable=1;deletable=1;connectable=1;" parent="1" vertex="1">
                    <mxGeometry x="-199" y="-31" width="120" height="60" as="geometry"/>
                </mxCell>
                <mxCell id="15" value="" style="edgeStyle=orthogonalEdgeStyle;html=1;strokeColor=#000000;" parent="1" source="9" target="12" edge="1">
                    <mxGeometry relative="1" as="geometry"/>
                </mxCell>
                <mxCell id="9" value="patient keypoint" style="shape=umlActor;verticalLabelPosition=bottom;verticalAlign=top;html=1;outlineConnect=0;fillColor=#f5f5f5;strokeColor=#000000;fontColor=#333333;snapToPoint=0;fixDash=0;editable=1;movable=1;resizable=1;rotatable=1;deletable=1;connectable=1;" parent="1" vertex="1">
                    <mxGeometry x="-34" y="-31" width="30" height="60" as="geometry"/>
                </mxCell>
                <mxCell id="20" style="edgeStyle=orthogonalEdgeStyle;html=1;entryX=0;entryY=0.5;entryDx=0;entryDy=0;strokeColor=#000000;exitX=1;exitY=0.5;exitDx=0;exitDy=0;" parent="1" source="12" target="16" edge="1">
                    <mxGeometry relative="1" as="geometry"/>
                </mxCell>
                <mxCell id="21" style="edgeStyle=orthogonalEdgeStyle;html=1;entryX=0;entryY=0.5;entryDx=0;entryDy=0;strokeColor=#000000;exitX=1;exitY=0.5;exitDx=0;exitDy=0;" parent="1" source="12" target="17" edge="1">
                    <mxGeometry relative="1" as="geometry"/>
                </mxCell>
                <mxCell id="12" value="process" style="rhombus;whiteSpace=wrap;html=1;strokeColor=#666666;fillColor=#f5f5f5;fontColor=#333333;" parent="1" vertex="1">
                    <mxGeometry x="40" y="39" width="80" height="80" as="geometry"/>
                </mxCell>
                <mxCell id="16" value="stance phase" style="rounded=0;whiteSpace=wrap;html=1;strokeColor=#666666;fillColor=#f5f5f5;fontColor=#333333;" parent="1" vertex="1">
                    <mxGeometry x="165" y="-7.5" width="85" height="46.5" as="geometry"/>
                </mxCell>
                <mxCell id="17" value="swing phase" style="rounded=0;whiteSpace=wrap;html=1;strokeColor=#666666;fillColor=#f5f5f5;fontColor=#333333;" parent="1" vertex="1">
                    <mxGeometry x="165" y="114.5" width="85" height="45.5" as="geometry"/>
                </mxCell>
                <mxCell id="uvtqeoxM3udcTJfN53Oq-45" value="" style="edgeStyle=orthogonalEdgeStyle;html=1;strokeColor=#000000;" parent="1" source="uvtqeoxM3udcTJfN53Oq-41" target="uvtqeoxM3udcTJfN53Oq-44" edge="1">
                    <mxGeometry relative="1" as="geometry"/>
                </mxCell>
                <mxCell id="uvtqeoxM3udcTJfN53Oq-41" value="bbox" style="rounded=1;whiteSpace=wrap;html=1;fillColor=#f5f5f5;strokeColor=#000000;fontColor=#333333;snapToPoint=0;fixDash=0;editable=1;movable=1;resizable=1;rotatable=1;deletable=1;connectable=1;" parent="1" vertex="1">
                    <mxGeometry x="-199" y="139" width="120" height="60" as="geometry"/>
                </mxCell>
                <mxCell id="uvtqeoxM3udcTJfN53Oq-43" value="patient bbox" style="shape=umlActor;verticalLabelPosition=bottom;verticalAlign=top;html=1;outlineConnect=0;fillColor=#f5f5f5;strokeColor=#000000;fontColor=#333333;snapToPoint=0;fixDash=0;editable=1;movable=1;resizable=1;rotatable=1;deletable=1;connectable=1;" parent="1" vertex="1">
                    <mxGeometry x="-34" y="140" width="30" height="60" as="geometry"/>
                </mxCell>
                <mxCell id="uvtqeoxM3udcTJfN53Oq-46" value="" style="edgeStyle=orthogonalEdgeStyle;html=1;strokeColor=#000000;entryX=0.5;entryY=1;entryDx=0;entryDy=0;" parent="1" source="uvtqeoxM3udcTJfN53Oq-44" target="12" edge="1">
                    <mxGeometry relative="1" as="geometry"/>
                </mxCell>
                <mxCell id="uvtqeoxM3udcTJfN53Oq-44" value="" style="rounded=0;whiteSpace=wrap;html=1;fillColor=none;strokeColor=#000000;" parent="1" vertex="1">
                    <mxGeometry x="-34" y="140" width="33" height="59" as="geometry"/>
                </mxCell>
            </root>
        </mxGraphModel>
    </diagram>
    <diagram id="TsRfpFkhWKflDI5KSoBx" name="fusion">
        <mxGraphModel dx="6142" dy="2096" grid="1" gridSize="10" guides="1" tooltips="1" connect="1" arrows="1" fold="1" page="0" pageScale="1" pageWidth="827" pageHeight="1169" background="#ffffff" math="0" shadow="0">
            <root>
                <mxCell id="0"/>
                <mxCell id="1" parent="0"/>
                <mxCell id="jqrRKn0581HksBjeB7p0-3" value="&lt;font style=&quot;font-size: 20px;&quot;&gt;step 2 auto fuse gait cycle&lt;/font&gt;" style="rounded=0;whiteSpace=wrap;html=1;fillColor=#fff2cc;strokeColor=#d6b656;align=left;verticalAlign=top;" vertex="1" parent="1">
                    <mxGeometry x="-720" y="70" width="680" height="260" as="geometry"/>
                </mxCell>
                <mxCell id="jqrRKn0581HksBjeB7p0-2" value="&lt;font style=&quot;font-size: 20px;&quot;&gt;step 1 train swing model&lt;/font&gt;" style="rounded=0;whiteSpace=wrap;html=1;fillColor=#dae8fc;strokeColor=#6c8ebf;align=left;verticalAlign=bottom;" vertex="1" parent="1">
                    <mxGeometry x="-720" y="355" width="575" height="250" as="geometry"/>
                </mxCell>
                <mxCell id="jqrRKn0581HksBjeB7p0-1" value="&lt;font style=&quot;font-size: 20px;&quot;&gt;step 1 train stance model&lt;/font&gt;" style="rounded=0;whiteSpace=wrap;html=1;fillColor=#dae8fc;strokeColor=#6c8ebf;align=left;verticalAlign=top;" vertex="1" parent="1">
                    <mxGeometry x="-720" y="-190" width="575" height="250" as="geometry"/>
                </mxCell>
                <mxCell id="-h0o29aZvWqdNAzWe7Ps-11" value="" style="edgeStyle=orthogonalEdgeStyle;html=1;strokeColor=#000000;fontSize=20;" parent="1" source="jnthJwEOSSpqLe6zA24j-1" target="-h0o29aZvWqdNAzWe7Ps-9" edge="1">
                    <mxGeometry relative="1" as="geometry"/>
                </mxCell>
                <mxCell id="jnthJwEOSSpqLe6zA24j-1" value="model 1" style="rounded=0;whiteSpace=wrap;html=1;fillColor=#f5f5f5;fontColor=#333333;strokeColor=#666666;fontSize=20;" parent="1" vertex="1">
                    <mxGeometry x="1730" y="310" width="120" height="60" as="geometry"/>
                </mxCell>
                <mxCell id="-h0o29aZvWqdNAzWe7Ps-12" value="" style="edgeStyle=orthogonalEdgeStyle;html=1;strokeColor=#000000;fontSize=20;" parent="1" source="jnthJwEOSSpqLe6zA24j-2" target="-h0o29aZvWqdNAzWe7Ps-10" edge="1">
                    <mxGeometry relative="1" as="geometry"/>
                </mxCell>
                <mxCell id="jnthJwEOSSpqLe6zA24j-2" value="model 2" style="rounded=0;whiteSpace=wrap;html=1;fillColor=#f5f5f5;fontColor=#333333;strokeColor=#666666;fontSize=20;" parent="1" vertex="1">
                    <mxGeometry x="1730" y="450" width="120" height="60" as="geometry"/>
                </mxCell>
                <mxCell id="-h0o29aZvWqdNAzWe7Ps-4" style="edgeStyle=orthogonalEdgeStyle;html=1;entryX=0;entryY=0;entryDx=0;entryDy=30;entryPerimeter=0;strokeColor=#666666;fillColor=#f5f5f5;fontSize=20;" parent="1" source="-h0o29aZvWqdNAzWe7Ps-1" target="-h0o29aZvWqdNAzWe7Ps-2" edge="1">
                    <mxGeometry relative="1" as="geometry"/>
                </mxCell>
                <mxCell id="-h0o29aZvWqdNAzWe7Ps-8" style="edgeStyle=orthogonalEdgeStyle;html=1;entryX=0;entryY=0;entryDx=0;entryDy=30;entryPerimeter=0;strokeColor=#000000;fontSize=20;" parent="1" source="-h0o29aZvWqdNAzWe7Ps-1" target="-h0o29aZvWqdNAzWe7Ps-3" edge="1">
                    <mxGeometry relative="1" as="geometry"/>
                </mxCell>
                <mxCell id="-h0o29aZvWqdNAzWe7Ps-1" value="Actor" style="shape=umlActor;verticalLabelPosition=bottom;verticalAlign=top;html=1;outlineConnect=0;fillColor=#f5f5f5;fontColor=#333333;strokeColor=#666666;fontSize=20;" parent="1" vertex="1">
                    <mxGeometry x="1450" y="370" width="30" height="60" as="geometry"/>
                </mxCell>
                <mxCell id="-h0o29aZvWqdNAzWe7Ps-5" value="" style="edgeStyle=none;html=1;fontSize=20;" parent="1" source="-h0o29aZvWqdNAzWe7Ps-2" target="jnthJwEOSSpqLe6zA24j-1" edge="1">
                    <mxGeometry relative="1" as="geometry"/>
                </mxCell>
                <mxCell id="-h0o29aZvWqdNAzWe7Ps-6" style="edgeStyle=none;html=1;entryX=0;entryY=0.5;entryDx=0;entryDy=0;strokeColor=#000000;fontSize=20;" parent="1" source="-h0o29aZvWqdNAzWe7Ps-2" target="jnthJwEOSSpqLe6zA24j-1" edge="1">
                    <mxGeometry relative="1" as="geometry"/>
                </mxCell>
                <mxCell id="-h0o29aZvWqdNAzWe7Ps-2" value="first&amp;nbsp;" style="shape=cube;whiteSpace=wrap;html=1;boundedLbl=1;backgroundOutline=1;darkOpacity=0.05;darkOpacity2=0.1;fillColor=#f5f5f5;fontColor=#333333;strokeColor=#666666;fontSize=20;" parent="1" vertex="1">
                    <mxGeometry x="1550" y="300" width="120" height="80" as="geometry"/>
                </mxCell>
                <mxCell id="-h0o29aZvWqdNAzWe7Ps-7" value="" style="edgeStyle=none;html=1;strokeColor=#000000;fontSize=20;" parent="1" source="-h0o29aZvWqdNAzWe7Ps-3" target="jnthJwEOSSpqLe6zA24j-2" edge="1">
                    <mxGeometry relative="1" as="geometry"/>
                </mxCell>
                <mxCell id="-h0o29aZvWqdNAzWe7Ps-3" value="second" style="shape=cube;whiteSpace=wrap;html=1;boundedLbl=1;backgroundOutline=1;darkOpacity=0.05;darkOpacity2=0.1;fillColor=#f5f5f5;fontColor=#333333;strokeColor=#666666;fontSize=20;" parent="1" vertex="1">
                    <mxGeometry x="1550" y="440" width="120" height="80" as="geometry"/>
                </mxCell>
                <mxCell id="-h0o29aZvWqdNAzWe7Ps-15" value="" style="edgeStyle=orthogonalEdgeStyle;html=1;strokeColor=#000000;fontColor=#000000;entryX=0.5;entryY=0;entryDx=0;entryDy=0;fontSize=20;" parent="1" source="-h0o29aZvWqdNAzWe7Ps-9" target="-h0o29aZvWqdNAzWe7Ps-14" edge="1">
                    <mxGeometry relative="1" as="geometry"/>
                </mxCell>
                <mxCell id="-h0o29aZvWqdNAzWe7Ps-9" value="output 1&amp;nbsp;" style="rounded=1;whiteSpace=wrap;html=1;fillColor=#f5f5f5;fontColor=#333333;strokeColor=#666666;fontSize=20;" parent="1" vertex="1">
                    <mxGeometry x="1890" y="310" width="80" height="60" as="geometry"/>
                </mxCell>
                <mxCell id="-h0o29aZvWqdNAzWe7Ps-16" value="" style="edgeStyle=orthogonalEdgeStyle;html=1;strokeColor=#000000;fontColor=#000000;entryX=0.5;entryY=1;entryDx=0;entryDy=0;fontSize=20;" parent="1" source="-h0o29aZvWqdNAzWe7Ps-10" target="-h0o29aZvWqdNAzWe7Ps-14" edge="1">
                    <mxGeometry relative="1" as="geometry"/>
                </mxCell>
                <mxCell id="-h0o29aZvWqdNAzWe7Ps-10" value="output 2" style="rounded=1;whiteSpace=wrap;html=1;fillColor=#f5f5f5;fontColor=#333333;strokeColor=#666666;fontSize=20;" parent="1" vertex="1">
                    <mxGeometry x="1890" y="450" width="80" height="60" as="geometry"/>
                </mxCell>
                <mxCell id="-h0o29aZvWqdNAzWe7Ps-13" value="&lt;font color=&quot;#000000&quot; style=&quot;font-size: 20px;&quot;&gt;final output = weight1 * output1 + weight2 * output2&lt;br style=&quot;font-size: 20px;&quot;&gt;&lt;/font&gt;" style="text;html=1;strokeColor=none;fillColor=none;align=center;verticalAlign=middle;whiteSpace=wrap;rounded=0;fontSize=20;" parent="1" vertex="1">
                    <mxGeometry x="1540" y="250" width="530" height="30" as="geometry"/>
                </mxCell>
                <mxCell id="r7Atwvpb_ZIEERXZACXt-44" value="" style="edgeStyle=orthogonalEdgeStyle;html=1;strokeColor=#000000;fontSize=20;fontColor=#000000;" parent="1" source="-h0o29aZvWqdNAzWe7Ps-14" target="r7Atwvpb_ZIEERXZACXt-43" edge="1">
                    <mxGeometry relative="1" as="geometry"/>
                </mxCell>
                <mxCell id="-h0o29aZvWqdNAzWe7Ps-14" value="fuse" style="ellipse;whiteSpace=wrap;html=1;aspect=fixed;fontColor=#333333;strokeColor=#666666;fillColor=#f5f5f5;fontSize=20;" parent="1" vertex="1">
                    <mxGeometry x="2010" y="360" width="80" height="80" as="geometry"/>
                </mxCell>
                <mxCell id="r7Atwvpb_ZIEERXZACXt-23" value="" style="edgeStyle=none;html=1;strokeColor=#000000;fontSize=20;" parent="1" source="r7Atwvpb_ZIEERXZACXt-2" target="r7Atwvpb_ZIEERXZACXt-21" edge="1">
                    <mxGeometry relative="1" as="geometry"/>
                </mxCell>
                <mxCell id="r7Atwvpb_ZIEERXZACXt-2" value="model 1" style="rounded=0;whiteSpace=wrap;html=1;fillColor=#f5f5f5;fontColor=#333333;strokeColor=#666666;fontSize=20;" parent="1" vertex="1">
                    <mxGeometry x="1201.4" y="940" width="120" height="60" as="geometry"/>
                </mxCell>
                <mxCell id="r7Atwvpb_ZIEERXZACXt-24" value="" style="edgeStyle=none;html=1;strokeColor=#000000;fontSize=20;" parent="1" source="r7Atwvpb_ZIEERXZACXt-4" target="r7Atwvpb_ZIEERXZACXt-22" edge="1">
                    <mxGeometry relative="1" as="geometry"/>
                </mxCell>
                <mxCell id="r7Atwvpb_ZIEERXZACXt-4" value="model 2" style="rounded=0;whiteSpace=wrap;html=1;fillColor=#f5f5f5;fontColor=#333333;strokeColor=#666666;fontSize=20;" parent="1" vertex="1">
                    <mxGeometry x="1201.4" y="1080" width="120" height="60" as="geometry"/>
                </mxCell>
                <mxCell id="r7Atwvpb_ZIEERXZACXt-5" style="edgeStyle=orthogonalEdgeStyle;html=1;entryX=0;entryY=0;entryDx=0;entryDy=30;entryPerimeter=0;strokeColor=#666666;fillColor=#f5f5f5;fontSize=20;" parent="1" source="r7Atwvpb_ZIEERXZACXt-7" target="r7Atwvpb_ZIEERXZACXt-10" edge="1">
                    <mxGeometry relative="1" as="geometry"/>
                </mxCell>
                <mxCell id="r7Atwvpb_ZIEERXZACXt-6" style="edgeStyle=orthogonalEdgeStyle;html=1;entryX=0;entryY=0;entryDx=0;entryDy=30;entryPerimeter=0;strokeColor=#000000;fontSize=20;" parent="1" source="r7Atwvpb_ZIEERXZACXt-7" target="r7Atwvpb_ZIEERXZACXt-12" edge="1">
                    <mxGeometry relative="1" as="geometry"/>
                </mxCell>
                <mxCell id="r7Atwvpb_ZIEERXZACXt-7" value="Actor" style="shape=umlActor;verticalLabelPosition=bottom;verticalAlign=top;html=1;outlineConnect=0;fillColor=#f5f5f5;fontColor=#333333;strokeColor=#666666;fontSize=20;" parent="1" vertex="1">
                    <mxGeometry x="921.4" y="1000" width="30" height="60" as="geometry"/>
                </mxCell>
                <mxCell id="r7Atwvpb_ZIEERXZACXt-8" value="" style="edgeStyle=none;html=1;fontSize=20;" parent="1" source="r7Atwvpb_ZIEERXZACXt-10" target="r7Atwvpb_ZIEERXZACXt-2" edge="1">
                    <mxGeometry relative="1" as="geometry"/>
                </mxCell>
                <mxCell id="r7Atwvpb_ZIEERXZACXt-9" style="edgeStyle=none;html=1;entryX=0;entryY=0.5;entryDx=0;entryDy=0;strokeColor=#000000;fontSize=20;" parent="1" source="r7Atwvpb_ZIEERXZACXt-10" target="r7Atwvpb_ZIEERXZACXt-2" edge="1">
                    <mxGeometry relative="1" as="geometry"/>
                </mxCell>
                <mxCell id="r7Atwvpb_ZIEERXZACXt-10" value="first&amp;nbsp;" style="shape=cube;whiteSpace=wrap;html=1;boundedLbl=1;backgroundOutline=1;darkOpacity=0.05;darkOpacity2=0.1;fillColor=#f5f5f5;fontColor=#333333;strokeColor=#666666;fontSize=20;" parent="1" vertex="1">
                    <mxGeometry x="1021.4" y="930" width="120" height="80" as="geometry"/>
                </mxCell>
                <mxCell id="r7Atwvpb_ZIEERXZACXt-11" value="" style="edgeStyle=none;html=1;strokeColor=#000000;fontSize=20;" parent="1" source="r7Atwvpb_ZIEERXZACXt-12" target="r7Atwvpb_ZIEERXZACXt-4" edge="1">
                    <mxGeometry relative="1" as="geometry"/>
                </mxCell>
                <mxCell id="r7Atwvpb_ZIEERXZACXt-12" value="second" style="shape=cube;whiteSpace=wrap;html=1;boundedLbl=1;backgroundOutline=1;darkOpacity=0.05;darkOpacity2=0.1;fillColor=#f5f5f5;fontColor=#333333;strokeColor=#666666;fontSize=20;" parent="1" vertex="1">
                    <mxGeometry x="1021.4" y="1070" width="120" height="80" as="geometry"/>
                </mxCell>
                <mxCell id="r7Atwvpb_ZIEERXZACXt-13" value="" style="edgeStyle=orthogonalEdgeStyle;html=1;strokeColor=#000000;fontColor=#000000;entryX=0.5;entryY=0;entryDx=0;entryDy=0;fontSize=20;" parent="1" source="r7Atwvpb_ZIEERXZACXt-14" target="r7Atwvpb_ZIEERXZACXt-17" edge="1">
                    <mxGeometry relative="1" as="geometry"/>
                </mxCell>
                <mxCell id="r7Atwvpb_ZIEERXZACXt-14" value="output 1&amp;nbsp;" style="rounded=1;whiteSpace=wrap;html=1;fillColor=#f5f5f5;fontColor=#333333;strokeColor=#666666;fontSize=20;" parent="1" vertex="1">
                    <mxGeometry x="1441.4" y="940" width="80" height="60" as="geometry"/>
                </mxCell>
                <mxCell id="r7Atwvpb_ZIEERXZACXt-15" value="" style="edgeStyle=orthogonalEdgeStyle;html=1;strokeColor=#000000;fontColor=#000000;entryX=0.5;entryY=1;entryDx=0;entryDy=0;fontSize=20;" parent="1" source="r7Atwvpb_ZIEERXZACXt-16" target="r7Atwvpb_ZIEERXZACXt-17" edge="1">
                    <mxGeometry relative="1" as="geometry"/>
                </mxCell>
                <mxCell id="r7Atwvpb_ZIEERXZACXt-16" value="output 2" style="rounded=1;whiteSpace=wrap;html=1;fillColor=#f5f5f5;fontColor=#333333;strokeColor=#666666;fontSize=20;" parent="1" vertex="1">
                    <mxGeometry x="1441.4" y="1080" width="80" height="60" as="geometry"/>
                </mxCell>
                <mxCell id="r7Atwvpb_ZIEERXZACXt-19" value="" style="edgeStyle=none;html=1;strokeColor=#000000;fontSize=20;" parent="1" source="r7Atwvpb_ZIEERXZACXt-17" target="r7Atwvpb_ZIEERXZACXt-18" edge="1">
                    <mxGeometry relative="1" as="geometry"/>
                </mxCell>
                <mxCell id="r7Atwvpb_ZIEERXZACXt-17" value="fuse" style="ellipse;whiteSpace=wrap;html=1;aspect=fixed;fontColor=#333333;strokeColor=#666666;fillColor=#f5f5f5;fontSize=20;" parent="1" vertex="1">
                    <mxGeometry x="1541.4" y="990" width="80" height="80" as="geometry"/>
                </mxCell>
                <mxCell id="r7Atwvpb_ZIEERXZACXt-18" value="final output" style="whiteSpace=wrap;html=1;fillColor=#f5f5f5;strokeColor=#666666;fontColor=#333333;fontSize=20;" parent="1" vertex="1">
                    <mxGeometry x="1661.4" y="1000" width="110" height="60" as="geometry"/>
                </mxCell>
                <mxCell id="r7Atwvpb_ZIEERXZACXt-25" value="" style="edgeStyle=none;html=1;strokeColor=#000000;fontSize=20;" parent="1" source="r7Atwvpb_ZIEERXZACXt-21" target="r7Atwvpb_ZIEERXZACXt-14" edge="1">
                    <mxGeometry relative="1" as="geometry"/>
                </mxCell>
                <mxCell id="r7Atwvpb_ZIEERXZACXt-21" value="head 1" style="rounded=0;whiteSpace=wrap;html=1;fillColor=#f5f5f5;fontColor=#333333;strokeColor=#666666;fontSize=20;" parent="1" vertex="1">
                    <mxGeometry x="1341.4" y="940" width="70" height="60" as="geometry"/>
                </mxCell>
                <mxCell id="r7Atwvpb_ZIEERXZACXt-26" value="" style="edgeStyle=none;html=1;strokeColor=#000000;fontSize=20;" parent="1" source="r7Atwvpb_ZIEERXZACXt-22" target="r7Atwvpb_ZIEERXZACXt-16" edge="1">
                    <mxGeometry relative="1" as="geometry"/>
                </mxCell>
                <mxCell id="NrIiVjMIWbNmHJ3AsyD0-3" value="" style="edgeStyle=orthogonalEdgeStyle;html=1;strokeColor=#000000;fontSize=20;fontColor=#000000;" parent="1" source="r7Atwvpb_ZIEERXZACXt-22" target="NrIiVjMIWbNmHJ3AsyD0-2" edge="1">
                    <mxGeometry relative="1" as="geometry"/>
                </mxCell>
                <mxCell id="r7Atwvpb_ZIEERXZACXt-22" value="head 2" style="rounded=0;whiteSpace=wrap;html=1;fillColor=#f5f5f5;fontColor=#333333;strokeColor=#666666;fontSize=20;" parent="1" vertex="1">
                    <mxGeometry x="1341.4" y="1080" width="70" height="60" as="geometry"/>
                </mxCell>
                <mxCell id="r7Atwvpb_ZIEERXZACXt-27" value="" style="shape=flexArrow;endArrow=classic;startArrow=classic;html=1;strokeColor=#000000;entryX=0.5;entryY=1;entryDx=0;entryDy=0;fontSize=20;" parent="1" source="r7Atwvpb_ZIEERXZACXt-4" target="r7Atwvpb_ZIEERXZACXt-2" edge="1">
                    <mxGeometry width="100" height="100" relative="1" as="geometry">
                        <mxPoint x="1161.4" y="1210" as="sourcePoint"/>
                        <mxPoint x="1261.4" y="1110" as="targetPoint"/>
                    </mxGeometry>
                </mxCell>
                <mxCell id="r7Atwvpb_ZIEERXZACXt-28" value="share weight" style="edgeLabel;html=1;align=center;verticalAlign=middle;resizable=0;points=[];fontSize=20;" parent="r7Atwvpb_ZIEERXZACXt-27" vertex="1" connectable="0">
                    <mxGeometry x="0.2314" relative="1" as="geometry">
                        <mxPoint as="offset"/>
                    </mxGeometry>
                </mxCell>
                <mxCell id="r7Atwvpb_ZIEERXZACXt-29" value="&lt;font color=&quot;#000000&quot; style=&quot;font-size: 20px;&quot;&gt;weight1&lt;br style=&quot;font-size: 20px;&quot;&gt;&lt;/font&gt;" style="text;html=1;strokeColor=none;fillColor=none;align=center;verticalAlign=middle;whiteSpace=wrap;rounded=0;fontSize=20;" parent="1" vertex="1">
                    <mxGeometry x="1316.4" y="860" width="120" height="30" as="geometry"/>
                </mxCell>
                <mxCell id="r7Atwvpb_ZIEERXZACXt-30" value="" style="endArrow=classic;html=1;strokeColor=#000000;exitX=0.5;exitY=0;exitDx=0;exitDy=0;entryX=0.5;entryY=1;entryDx=0;entryDy=0;fontSize=20;" parent="1" source="r7Atwvpb_ZIEERXZACXt-21" target="r7Atwvpb_ZIEERXZACXt-29" edge="1">
                    <mxGeometry width="50" height="50" relative="1" as="geometry">
                        <mxPoint x="1371.4" y="1260" as="sourcePoint"/>
                        <mxPoint x="1311.4" y="1220" as="targetPoint"/>
                    </mxGeometry>
                </mxCell>
                <mxCell id="r7Atwvpb_ZIEERXZACXt-32" value="fina" style="text;html=1;align=center;verticalAlign=middle;resizable=0;points=[];autosize=1;strokeColor=none;fillColor=none;fontSize=20;" parent="1" vertex="1">
                    <mxGeometry x="1331.4" y="1340" width="60" height="40" as="geometry"/>
                </mxCell>
                <mxCell id="r7Atwvpb_ZIEERXZACXt-34" value="label" style="text;html=1;align=center;verticalAlign=middle;resizable=0;points=[];autosize=1;strokeColor=none;fillColor=none;fontColor=#000000;fontSize=20;" parent="1" vertex="1">
                    <mxGeometry x="901.4" y="950" width="70" height="40" as="geometry"/>
                </mxCell>
                <mxCell id="r7Atwvpb_ZIEERXZACXt-35" value="" style="endArrow=classic;startArrow=classic;html=1;strokeColor=#000000;fontColor=#000000;exitX=0.51;exitY=-0.142;exitDx=0;exitDy=0;exitPerimeter=0;entryX=0.5;entryY=0;entryDx=0;entryDy=0;edgeStyle=orthogonalEdgeStyle;fontSize=20;" parent="1" source="r7Atwvpb_ZIEERXZACXt-34" target="r7Atwvpb_ZIEERXZACXt-14" edge="1">
                    <mxGeometry width="50" height="50" relative="1" as="geometry">
                        <mxPoint x="1081.4" y="1260" as="sourcePoint"/>
                        <mxPoint x="1131.4" y="1210" as="targetPoint"/>
                        <Array as="points">
                            <mxPoint x="937.4" y="910"/>
                            <mxPoint x="1481.4" y="910"/>
                        </Array>
                    </mxGeometry>
                </mxCell>
                <mxCell id="r7Atwvpb_ZIEERXZACXt-36" value="&lt;span style=&quot;background-color: rgb(255, 255, 255); font-size: 20px;&quot;&gt;L 1&lt;/span&gt;" style="edgeLabel;html=1;align=center;verticalAlign=middle;resizable=0;points=[];fontColor=#000000;fontSize=20;" parent="r7Atwvpb_ZIEERXZACXt-35" vertex="1" connectable="0">
                    <mxGeometry x="0.0859" y="1" relative="1" as="geometry">
                        <mxPoint as="offset"/>
                    </mxGeometry>
                </mxCell>
                <mxCell id="r7Atwvpb_ZIEERXZACXt-37" value="" style="endArrow=classic;startArrow=classic;html=1;strokeColor=#000000;fontColor=#000000;exitX=-0.02;exitY=0.53;exitDx=0;exitDy=0;exitPerimeter=0;entryX=0.5;entryY=1;entryDx=0;entryDy=0;edgeStyle=orthogonalEdgeStyle;fontSize=20;" parent="1" source="r7Atwvpb_ZIEERXZACXt-34" target="r7Atwvpb_ZIEERXZACXt-16" edge="1">
                    <mxGeometry width="50" height="50" relative="1" as="geometry">
                        <mxPoint x="1391.4" y="1070" as="sourcePoint"/>
                        <mxPoint x="1441.4" y="1020" as="targetPoint"/>
                        <Array as="points">
                            <mxPoint x="901.4" y="971"/>
                            <mxPoint x="901.4" y="1170"/>
                            <mxPoint x="1481.4" y="1170"/>
                        </Array>
                    </mxGeometry>
                </mxCell>
                <mxCell id="r7Atwvpb_ZIEERXZACXt-38" value="&lt;span style=&quot;background-color: rgb(255, 255, 255); font-size: 20px;&quot;&gt;L 2&lt;/span&gt;" style="edgeLabel;html=1;align=center;verticalAlign=middle;resizable=0;points=[];fontColor=#000000;fontSize=20;" parent="r7Atwvpb_ZIEERXZACXt-37" vertex="1" connectable="0">
                    <mxGeometry x="0.212" y="3" relative="1" as="geometry">
                        <mxPoint as="offset"/>
                    </mxGeometry>
                </mxCell>
                <mxCell id="r7Atwvpb_ZIEERXZACXt-43" value="final output" style="whiteSpace=wrap;html=1;fontSize=20;fillColor=#f5f5f5;strokeColor=#666666;fontColor=#333333;" parent="1" vertex="1">
                    <mxGeometry x="2150" y="370" width="120" height="60" as="geometry"/>
                </mxCell>
                <mxCell id="NrIiVjMIWbNmHJ3AsyD0-1" value="&lt;div style=&quot;text-align: left;&quot;&gt;&lt;span style=&quot;background-color: initial;&quot;&gt;G average = (weight1 + weight2) / task number&lt;/span&gt;&lt;/div&gt;&lt;div style=&quot;text-align: left;&quot;&gt;&lt;span style=&quot;background-color: initial;&quot;&gt;G weight = stack(weight1, weight2)&lt;/span&gt;&lt;/div&gt;&lt;div style=&quot;text-align: left;&quot;&gt;learning rate ratio = loss / l0 / mean(loss)&lt;/div&gt;&lt;div style=&quot;text-align: left;&quot;&gt;&lt;span style=&quot;background-color: initial;&quot;&gt;&lt;br&gt;&lt;/span&gt;&lt;/div&gt;&lt;div style=&quot;text-align: left;&quot;&gt;&lt;span style=&quot;background-color: initial;&quot;&gt;Loss1 = CE(output1, label)&lt;/span&gt;&lt;/div&gt;&lt;div style=&quot;text-align: left;&quot;&gt;&lt;span style=&quot;background-color: initial;&quot;&gt;Loss2 = CE(output2, label)&lt;/span&gt;&lt;/div&gt;&lt;div style=&quot;text-align: left;&quot;&gt;&lt;span style=&quot;background-color: initial;&quot;&gt;Loss grad = L1 norm (G weight - G average * learning rate ratio)&lt;/span&gt;&lt;/div&gt;&lt;div style=&quot;text-align: left;&quot;&gt;&lt;span style=&quot;background-color: initial;&quot;&gt;&lt;br&gt;&lt;/span&gt;&lt;/div&gt;&lt;div style=&quot;text-align: left;&quot;&gt;&lt;span style=&quot;background-color: initial;&quot;&gt;Loss total = weight1 * loss1 + weight2 * loss2&lt;/span&gt;&lt;/div&gt;" style="text;html=1;align=center;verticalAlign=middle;resizable=0;points=[];autosize=1;strokeColor=none;fillColor=none;fontSize=20;fontColor=#000000;" parent="1" vertex="1">
                    <mxGeometry x="966.4" y="1270" width="590" height="230" as="geometry"/>
                </mxCell>
                <mxCell id="NrIiVjMIWbNmHJ3AsyD0-2" value="&lt;font color=&quot;#000000&quot; style=&quot;font-size: 20px;&quot;&gt;weight2&lt;br style=&quot;font-size: 20px;&quot;&gt;&lt;/font&gt;" style="text;html=1;strokeColor=none;fillColor=none;align=center;verticalAlign=middle;whiteSpace=wrap;rounded=0;fontSize=20;" parent="1" vertex="1">
                    <mxGeometry x="1316.4" y="1200" width="120" height="30" as="geometry"/>
                </mxCell>
                <mxCell id="90n99NMB4YQgCMQXHEWa-3" value="" style="edgeStyle=none;html=1;" parent="1" source="90n99NMB4YQgCMQXHEWa-1" target="90n99NMB4YQgCMQXHEWa-2" edge="1">
                    <mxGeometry relative="1" as="geometry"/>
                </mxCell>
                <mxCell id="90n99NMB4YQgCMQXHEWa-8" value="" style="edgeStyle=orthogonalEdgeStyle;html=1;startArrow=classic;startFill=1;" parent="1" source="90n99NMB4YQgCMQXHEWa-1" target="90n99NMB4YQgCMQXHEWa-6" edge="1">
                    <mxGeometry relative="1" as="geometry"/>
                </mxCell>
                <mxCell id="90n99NMB4YQgCMQXHEWa-1" value="stance phase" style="shape=cube;whiteSpace=wrap;html=1;boundedLbl=1;backgroundOutline=1;darkOpacity=0.05;darkOpacity2=0.1;fillColor=#f5f5f5;fontColor=#333333;strokeColor=#666666;fontSize=20;" parent="1" vertex="1">
                    <mxGeometry x="-690" y="-40" width="120" height="80" as="geometry"/>
                </mxCell>
                <mxCell id="90n99NMB4YQgCMQXHEWa-5" value="" style="edgeStyle=none;html=1;" parent="1" source="90n99NMB4YQgCMQXHEWa-2" target="90n99NMB4YQgCMQXHEWa-4" edge="1">
                    <mxGeometry relative="1" as="geometry"/>
                </mxCell>
                <mxCell id="90n99NMB4YQgCMQXHEWa-42" value="" style="edgeStyle=orthogonalEdgeStyle;html=1;startArrow=none;startFill=0;" parent="1" source="90n99NMB4YQgCMQXHEWa-2" target="90n99NMB4YQgCMQXHEWa-27" edge="1">
                    <mxGeometry relative="1" as="geometry"/>
                </mxCell>
                <mxCell id="90n99NMB4YQgCMQXHEWa-2" value="stance model" style="rounded=0;whiteSpace=wrap;html=1;fillColor=#f5f5f5;fontColor=#333333;strokeColor=#666666;fontSize=20;" parent="1" vertex="1">
                    <mxGeometry x="-480" y="-30" width="120" height="60" as="geometry"/>
                </mxCell>
                <mxCell id="90n99NMB4YQgCMQXHEWa-4" value="pred" style="whiteSpace=wrap;html=1;fontSize=20;fillColor=#f5f5f5;strokeColor=#666666;fontColor=#333333;rounded=0;" parent="1" vertex="1">
                    <mxGeometry x="-280" y="-30" width="120" height="60" as="geometry"/>
                </mxCell>
                <mxCell id="90n99NMB4YQgCMQXHEWa-7" style="edgeStyle=orthogonalEdgeStyle;html=1;entryX=0.5;entryY=0;entryDx=0;entryDy=0;startArrow=classic;startFill=1;" parent="1" source="90n99NMB4YQgCMQXHEWa-6" target="90n99NMB4YQgCMQXHEWa-4" edge="1">
                    <mxGeometry relative="1" as="geometry"/>
                </mxCell>
                <mxCell id="90n99NMB4YQgCMQXHEWa-6" value="label" style="whiteSpace=wrap;html=1;fontSize=20;fillColor=#f5f5f5;strokeColor=#666666;fontColor=#333333;rounded=0;" parent="1" vertex="1">
                    <mxGeometry x="-690" y="-130" width="120" height="60" as="geometry"/>
                </mxCell>
                <mxCell id="90n99NMB4YQgCMQXHEWa-9" value="" style="edgeStyle=none;html=1;" parent="1" source="90n99NMB4YQgCMQXHEWa-11" target="90n99NMB4YQgCMQXHEWa-13" edge="1">
                    <mxGeometry relative="1" as="geometry"/>
                </mxCell>
                <mxCell id="90n99NMB4YQgCMQXHEWa-10" value="" style="edgeStyle=orthogonalEdgeStyle;html=1;startArrow=classic;startFill=1;" parent="1" source="90n99NMB4YQgCMQXHEWa-11" target="90n99NMB4YQgCMQXHEWa-16" edge="1">
                    <mxGeometry relative="1" as="geometry"/>
                </mxCell>
                <mxCell id="90n99NMB4YQgCMQXHEWa-11" value="swing phase" style="shape=cube;whiteSpace=wrap;html=1;boundedLbl=1;backgroundOutline=1;darkOpacity=0.05;darkOpacity2=0.1;fillColor=#f5f5f5;fontColor=#333333;strokeColor=#666666;fontSize=20;" parent="1" vertex="1">
                    <mxGeometry x="-690" y="370" width="120" height="80" as="geometry"/>
                </mxCell>
                <mxCell id="90n99NMB4YQgCMQXHEWa-12" value="" style="edgeStyle=none;html=1;" parent="1" source="90n99NMB4YQgCMQXHEWa-13" target="90n99NMB4YQgCMQXHEWa-14" edge="1">
                    <mxGeometry relative="1" as="geometry"/>
                </mxCell>
                <mxCell id="90n99NMB4YQgCMQXHEWa-44" value="" style="edgeStyle=orthogonalEdgeStyle;html=1;startArrow=none;startFill=0;" parent="1" source="90n99NMB4YQgCMQXHEWa-13" target="90n99NMB4YQgCMQXHEWa-28" edge="1">
                    <mxGeometry relative="1" as="geometry"/>
                </mxCell>
                <mxCell id="90n99NMB4YQgCMQXHEWa-13" value="swing model" style="rounded=0;whiteSpace=wrap;html=1;fillColor=#f5f5f5;fontColor=#333333;strokeColor=#666666;fontSize=20;" parent="1" vertex="1">
                    <mxGeometry x="-480" y="380" width="120" height="60" as="geometry"/>
                </mxCell>
                <mxCell id="90n99NMB4YQgCMQXHEWa-14" value="pred" style="whiteSpace=wrap;html=1;fontSize=20;fillColor=#f5f5f5;strokeColor=#666666;fontColor=#333333;rounded=0;" parent="1" vertex="1">
                    <mxGeometry x="-280" y="380" width="120" height="60" as="geometry"/>
                </mxCell>
                <mxCell id="90n99NMB4YQgCMQXHEWa-15" style="edgeStyle=orthogonalEdgeStyle;html=1;entryX=0.5;entryY=1;entryDx=0;entryDy=0;startArrow=classic;startFill=1;" parent="1" source="90n99NMB4YQgCMQXHEWa-16" target="90n99NMB4YQgCMQXHEWa-14" edge="1">
                    <mxGeometry relative="1" as="geometry">
                        <Array as="points">
                            <mxPoint x="-220" y="520"/>
                        </Array>
                    </mxGeometry>
                </mxCell>
                <mxCell id="90n99NMB4YQgCMQXHEWa-16" value="label" style="whiteSpace=wrap;html=1;fontSize=20;fillColor=#f5f5f5;strokeColor=#666666;fontColor=#333333;rounded=0;" parent="1" vertex="1">
                    <mxGeometry x="-690" y="490" width="120" height="60" as="geometry"/>
                </mxCell>
                <mxCell id="90n99NMB4YQgCMQXHEWa-20" value="" style="edgeStyle=orthogonalEdgeStyle;html=1;startArrow=none;startFill=0;" parent="1" source="90n99NMB4YQgCMQXHEWa-18" target="90n99NMB4YQgCMQXHEWa-19" edge="1">
                    <mxGeometry relative="1" as="geometry"/>
                </mxCell>
                <mxCell id="90n99NMB4YQgCMQXHEWa-18" value="video" style="shape=cube;whiteSpace=wrap;html=1;boundedLbl=1;backgroundOutline=1;darkOpacity=0.05;darkOpacity2=0.1;fillColor=#f5f5f5;fontColor=#333333;strokeColor=#666666;fontSize=20;" parent="1" vertex="1">
                    <mxGeometry x="-1030" y="170" width="120" height="80" as="geometry"/>
                </mxCell>
                <mxCell id="90n99NMB4YQgCMQXHEWa-25" value="" style="edgeStyle=orthogonalEdgeStyle;html=1;startArrow=none;startFill=0;" parent="1" source="90n99NMB4YQgCMQXHEWa-19" target="90n99NMB4YQgCMQXHEWa-23" edge="1">
                    <mxGeometry relative="1" as="geometry"/>
                </mxCell>
                <mxCell id="90n99NMB4YQgCMQXHEWa-26" style="edgeStyle=orthogonalEdgeStyle;html=1;entryX=0;entryY=0;entryDx=0;entryDy=30;entryPerimeter=0;startArrow=none;startFill=0;" parent="1" source="90n99NMB4YQgCMQXHEWa-19" target="90n99NMB4YQgCMQXHEWa-21" edge="1">
                    <mxGeometry relative="1" as="geometry"/>
                </mxCell>
                <mxCell id="90n99NMB4YQgCMQXHEWa-19" value="gait cycle module" style="ellipse;whiteSpace=wrap;html=1;fontSize=20;fillColor=#f5f5f5;strokeColor=#666666;fontColor=#333333;" parent="1" vertex="1">
                    <mxGeometry x="-860" y="160" width="100" height="100" as="geometry"/>
                </mxCell>
                <mxCell id="90n99NMB4YQgCMQXHEWa-30" value="" style="edgeStyle=orthogonalEdgeStyle;html=1;startArrow=none;startFill=0;" parent="1" source="90n99NMB4YQgCMQXHEWa-21" target="90n99NMB4YQgCMQXHEWa-27" edge="1">
                    <mxGeometry relative="1" as="geometry"/>
                </mxCell>
                <mxCell id="90n99NMB4YQgCMQXHEWa-41" value="" style="edgeStyle=orthogonalEdgeStyle;html=1;startArrow=none;startFill=0;" parent="1" source="90n99NMB4YQgCMQXHEWa-21" target="90n99NMB4YQgCMQXHEWa-1" edge="1">
                    <mxGeometry relative="1" as="geometry"/>
                </mxCell>
                <mxCell id="90n99NMB4YQgCMQXHEWa-21" value="stance phase" style="shape=cube;whiteSpace=wrap;html=1;boundedLbl=1;backgroundOutline=1;darkOpacity=0.05;darkOpacity2=0.1;fillColor=#f5f5f5;fontColor=#333333;strokeColor=#666666;fontSize=20;" parent="1" vertex="1">
                    <mxGeometry x="-690" y="110" width="120" height="80" as="geometry"/>
                </mxCell>
                <mxCell id="90n99NMB4YQgCMQXHEWa-29" value="" style="edgeStyle=orthogonalEdgeStyle;html=1;startArrow=none;startFill=0;" parent="1" source="90n99NMB4YQgCMQXHEWa-23" target="90n99NMB4YQgCMQXHEWa-28" edge="1">
                    <mxGeometry relative="1" as="geometry"/>
                </mxCell>
                <mxCell id="90n99NMB4YQgCMQXHEWa-43" value="" style="edgeStyle=orthogonalEdgeStyle;html=1;startArrow=none;startFill=0;" parent="1" source="90n99NMB4YQgCMQXHEWa-23" target="90n99NMB4YQgCMQXHEWa-11" edge="1">
                    <mxGeometry relative="1" as="geometry"/>
                </mxCell>
                <mxCell id="90n99NMB4YQgCMQXHEWa-23" value="swing phase" style="shape=cube;whiteSpace=wrap;html=1;boundedLbl=1;backgroundOutline=1;darkOpacity=0.05;darkOpacity2=0.1;fillColor=#f5f5f5;fontColor=#333333;strokeColor=#666666;fontSize=20;" parent="1" vertex="1">
                    <mxGeometry x="-690" y="240" width="120" height="80" as="geometry"/>
                </mxCell>
                <mxCell id="90n99NMB4YQgCMQXHEWa-36" style="edgeStyle=orthogonalEdgeStyle;html=1;entryX=0.5;entryY=0;entryDx=0;entryDy=0;startArrow=none;startFill=0;" parent="1" source="90n99NMB4YQgCMQXHEWa-27" target="90n99NMB4YQgCMQXHEWa-31" edge="1">
                    <mxGeometry relative="1" as="geometry"/>
                </mxCell>
                <mxCell id="90n99NMB4YQgCMQXHEWa-27" value="stance model" style="rounded=0;whiteSpace=wrap;html=1;fillColor=#f5f5f5;fontColor=#333333;strokeColor=#666666;fontSize=20;" parent="1" vertex="1">
                    <mxGeometry x="-520" y="120" width="120" height="60" as="geometry"/>
                </mxCell>
                <mxCell id="90n99NMB4YQgCMQXHEWa-33" value="" style="edgeStyle=orthogonalEdgeStyle;html=1;startArrow=none;startFill=0;entryX=0.5;entryY=1;entryDx=0;entryDy=0;" parent="1" source="90n99NMB4YQgCMQXHEWa-28" target="90n99NMB4YQgCMQXHEWa-31" edge="1">
                    <mxGeometry relative="1" as="geometry"/>
                </mxCell>
                <mxCell id="90n99NMB4YQgCMQXHEWa-28" value="swing model" style="rounded=0;whiteSpace=wrap;html=1;fillColor=#f5f5f5;fontColor=#333333;strokeColor=#666666;fontSize=20;" parent="1" vertex="1">
                    <mxGeometry x="-520" y="250" width="120" height="60" as="geometry"/>
                </mxCell>
                <mxCell id="90n99NMB4YQgCMQXHEWa-38" value="" style="edgeStyle=orthogonalEdgeStyle;html=1;startArrow=none;startFill=0;" parent="1" source="90n99NMB4YQgCMQXHEWa-31" target="90n99NMB4YQgCMQXHEWa-37" edge="1">
                    <mxGeometry relative="1" as="geometry"/>
                </mxCell>
                <mxCell id="90n99NMB4YQgCMQXHEWa-31" value="&amp;nbsp;compare" style="ellipse;whiteSpace=wrap;html=1;fontSize=20;fillColor=#f5f5f5;strokeColor=#666666;fontColor=#333333;rounded=0;" parent="1" vertex="1">
                    <mxGeometry x="-390" y="165" width="90" height="90" as="geometry"/>
                </mxCell>
                <mxCell id="90n99NMB4YQgCMQXHEWa-40" value="" style="edgeStyle=orthogonalEdgeStyle;html=1;startArrow=none;startFill=0;" parent="1" source="90n99NMB4YQgCMQXHEWa-37" target="90n99NMB4YQgCMQXHEWa-39" edge="1">
                    <mxGeometry relative="1" as="geometry"/>
                </mxCell>
                <mxCell id="90n99NMB4YQgCMQXHEWa-37" value="model" style="rounded=0;whiteSpace=wrap;html=1;fillColor=#f5f5f5;fontColor=#333333;strokeColor=#666666;fontSize=20;" parent="1" vertex="1">
                    <mxGeometry x="-270" y="180" width="100" height="60" as="geometry"/>
                </mxCell>
                <mxCell id="90n99NMB4YQgCMQXHEWa-39" value="pred" style="whiteSpace=wrap;html=1;fontSize=20;fillColor=#f5f5f5;strokeColor=#666666;fontColor=#333333;rounded=0;" parent="1" vertex="1">
                    <mxGeometry x="-140" y="180" width="90" height="60" as="geometry"/>
                </mxCell>
            </root>
        </mxGraphModel>
    </diagram>
    <diagram id="Lh4XkOCNMaTuY2wjV_DU" name="flow chart">
        <mxGraphModel dx="2471" dy="848" grid="1" gridSize="10" guides="1" tooltips="1" connect="1" arrows="1" fold="1" page="1" pageScale="1" pageWidth="827" pageHeight="1169" math="0" shadow="0">
            <root>
                <mxCell id="0"/>
                <mxCell id="1" parent="0"/>
            </root>
        </mxGraphModel>
    </diagram>
</mxfile>